<svg xmlns="http://www.w3.org/2000/svg" style="isolation:isolate" viewBox="0 0 390 225" width="520" height="300">
    <g style="isolation:isolate" fill="#59B210">
        <path d="M280.97 166.941h-3.227v-8.908h17.815v8.697h-3.367l-13.325 32.404a41.31 41.31 0 0 1-1.789 3.436c-.679 1.168-1.578 2.233-2.7 3.192-1.123.957-2.537 1.741-4.244 2.349-1.706.607-3.822.912-6.347.912-1.824-.095-3.425-.468-4.804-1.122a16.053 16.053 0 0 1-3.682-2.385l5.259-8.276a14.985 14.985 0 0 0 2.21 1.683c.818.514 1.624.772 2.42.772.934 0 1.741-.398 2.42-1.192a8.16 8.16 0 0 0 1.508-2.595l.982-2.946-13.677-25.951h-2.876v-8.978h21.602v8.908h-3.296l4.559 10.941 4.559-10.941zM229.49 185.317c1.075 0 2.01-.257 2.806-.771.794-.515 1.355-1.029 1.683-1.544v-2.665a3.475 3.475 0 0 0-.316-.456c-.165-.211-.41-.431-.737-.667a5.491 5.491 0 0 0-1.227-.631c-.491-.186-1.111-.28-1.859-.28-1.402 0-2.431.351-3.086 1.052-.655.702-.981 1.59-.981 2.665 0 .982.351 1.778 1.052 2.385.701.608 1.589.912 2.665.912zm-15.571-24.338c.701-.421 1.59-.912 2.666-1.472a40.695 40.695 0 0 1 3.612-1.649 28.693 28.693 0 0 1 4.278-1.333 21.026 21.026 0 0 1 4.734-.526c2.105 0 4.279.223 6.523.667 2.244.445 4.289 1.216 6.137 2.315 1.847 1.099 3.367 2.583 4.559 4.453 1.192 1.871 1.789 4.208 1.789 7.013v13.677h4.208v8.978h-15.01l-1.683-3.157a9.892 9.892 0 0 1-2.209 2.21c-.819.585-1.66 1.04-2.525 1.367-.866.327-1.719.562-2.56.702-.841.141-1.567.21-2.174.21-1.684 0-3.344-.234-4.98-.701-1.638-.468-3.11-1.168-4.419-2.104-1.309-.935-2.373-2.139-3.191-3.612-.819-1.473-1.227-3.237-1.227-5.295 0-1.964.385-3.741 1.157-5.331a12.246 12.246 0 0 1 3.156-4.068c1.333-1.122 2.886-1.987 4.664-2.595a17.237 17.237 0 0 1 5.611-.912c1.028 0 1.952.105 2.77.316.818.211 1.519.456 2.105.737.584.28 1.052.56 1.402.841.351.281.572.468.667.561v-2.455c0-1.589-.632-2.641-1.894-3.156-1.263-.514-2.853-.771-4.769-.771-2.104 0-4.033.35-5.787 1.052-1.753.701-3.308 1.427-4.664 2.174l-2.946-8.136zM185.865 153.194v12.204h3.156c2.057 0 3.717-.502 4.979-1.508 1.263-1.005 1.894-2.443 1.894-4.314 0-2.103-.573-3.693-1.718-4.769-1.147-1.075-2.747-1.613-4.805-1.613h-3.506zm-18.306-9.118h22.724c4.069 0 7.365.41 9.889 1.228 2.525.818 4.489 1.917 5.892 3.296 1.403 1.38 2.349 2.97 2.841 4.77.491 1.8.736 3.706.736 5.716 0 2.338-.491 4.372-1.473 6.101a12.798 12.798 0 0 1-3.998 4.314c-1.683 1.146-3.636 2.011-5.856 2.595-2.221.585-4.593.876-7.119.876h-5.33v10.872h4.279v9.258h-22.585v-9.258h3.928v-30.58h-3.928v-9.188z"/>
    </g>
    <g style="isolation:isolate">
        <path d="M275.091 95.483h3.787v-6.452l12.906-4.138v10.59h6.662v9.118h-6.662v12.485c0 .328-.012.655-.035.982a13.9 13.9 0 0 0-.035 1.052c0 .935.128 1.765.385 2.49.256.725.9 1.087 1.929 1.087.466 0 1.157-.129 2.069-.386a19.116 19.116 0 0 0 2.349-.807v8.978c-.514.233-1.169.432-1.963.596-.796.163-1.614.292-2.455.386-.842.093-1.625.175-2.35.245-.725.07-1.297.106-1.718.106-2.62 0-4.664-.351-6.137-1.053-1.473-.701-2.56-1.683-3.261-2.945-.702-1.263-1.147-2.806-1.333-4.63a75.307 75.307 0 0 1-.351-6.101v-12.485h-3.787v-9.118zM261.345 111.334a19.6 19.6 0 0 0-.316-2.559 10.52 10.52 0 0 0-.737-2.385c-.327-.724-.771-1.309-1.332-1.754-.562-.443-1.239-.666-2.034-.666-1.029 0-1.928.258-2.7.772a6.448 6.448 0 0 0-1.929 2.033c-.515.842-.901 1.801-1.157 2.876a14.088 14.088 0 0 0-.386 3.296c0 2.385.655 4.361 1.964 5.927 1.308 1.567 3.132 2.35 5.471 2.35 1.776 0 3.319-.362 4.629-1.087 1.308-.725 2.525-1.694 3.646-2.911l6.173 7.154c-.841.889-1.848 1.766-3.016 2.63-1.169.866-2.49 1.626-3.963 2.28a28.261 28.261 0 0 1-4.804 1.613c-1.731.42-3.532.631-5.401.631-2.572 0-5.026-.386-7.364-1.158-2.339-.771-4.383-1.939-6.137-3.507-1.753-1.565-3.156-3.517-4.208-5.855-1.053-2.338-1.579-5.074-1.579-8.207 0-3.086.48-5.762 1.438-8.03.958-2.267 2.233-4.138 3.823-5.612a15.093 15.093 0 0 1 5.506-3.26 20.147 20.147 0 0 1 6.487-1.053c1.168 0 2.232.141 3.191.421.959.281 1.8.632 2.525 1.052.725.421 1.344.866 1.859 1.333.514.468.912.865 1.192 1.192l1.192-3.367h8.277v15.851h-10.31zM217.019 103.97c-1.076 0-1.953.21-2.63.631-.678.421-1.216.924-1.614 1.508a5.819 5.819 0 0 0-.841 1.859 12.739 12.739 0 0 0-.316 1.613h10.591c0-.654-.071-1.32-.21-1.999a5.265 5.265 0 0 0-.736-1.823c-.352-.538-.866-.971-1.544-1.298-.678-.327-1.578-.491-2.7-.491zm17.324 21.742c-2.62 2.245-5.378 3.823-8.276 4.735-2.9.911-6.172 1.367-9.819 1.367-2.199 0-4.396-.363-6.593-1.087a17.153 17.153 0 0 1-5.927-3.366c-1.753-1.519-3.191-3.483-4.313-5.892-1.123-2.407-1.683-5.295-1.683-8.662 0-2.851.49-5.411 1.472-7.679.982-2.268 2.315-4.197 3.998-5.787 1.683-1.589 3.67-2.793 5.962-3.612 2.29-.817 4.769-1.227 7.434-1.227 2.899 0 5.459.421 7.68 1.262 2.22.842 4.079 2.011 5.576 3.507a14.454 14.454 0 0 1 3.366 5.295c.748 2.034 1.123 4.244 1.123 6.629 0 .935-.07 1.858-.21 2.77a14.21 14.21 0 0 1-.632 2.559h-22.093c.093.469.246 1.03.456 1.684.21.655.572 1.286 1.087 1.893.514.609 1.215 1.123 2.105 1.544.887.42 2.079.631 3.576.631.607 0 1.274-.023 1.999-.071a11.498 11.498 0 0 0 2.35-.42 16.518 16.518 0 0 0 2.665-1.017c.935-.444 1.869-1.063 2.805-1.859l5.892 6.803zM174.657 130.552h-21.602v-9.188h2.946v-16.762h-2.946v-9.118h14.939l1.613 4.348c1.216-1.636 2.63-2.981 4.244-4.033 1.612-1.052 3.541-1.578 5.786-1.578 2.711 0 4.897.456 6.558 1.368 1.659.912 2.945 2.104 3.857 3.577.912 1.472 1.519 3.133 1.824 4.98a33.96 33.96 0 0 1 .456 5.505v11.713h3.296v9.188h-17.675v-19.147c0-.608-.012-1.286-.035-2.034a6.91 6.91 0 0 0-.385-2.105 3.994 3.994 0 0 0-1.158-1.683c-.538-.467-1.321-.701-2.349-.701-.889 0-1.625.199-2.21.596a4.131 4.131 0 0 0-1.367 1.543 6.713 6.713 0 0 0-.667 2.104 15.2 15.2 0 0 0-.175 2.28v9.959h5.05v9.188zM128.578 130.552h-21.602v-9.188h2.946v-16.762h-2.946v-9.118h14.939l1.613 4.348c1.215-1.636 2.63-2.981 4.243-4.033 1.613-1.052 3.543-1.578 5.787-1.578 2.711 0 4.898.456 6.557 1.368 1.66.912 2.946 2.104 3.858 3.577.912 1.472 1.519 3.133 1.824 4.98.303 1.847.455 3.682.455 5.505v11.713h3.297v9.188h-17.675v-19.147c0-.608-.012-1.286-.035-2.034a6.91 6.91 0 0 0-.385-2.105 3.994 3.994 0 0 0-1.158-1.683c-.538-.467-1.321-.701-2.349-.701-.889 0-1.626.199-2.209.596a4.145 4.145 0 0 0-1.369 1.543 6.71 6.71 0 0 0-.665 2.104 15.072 15.072 0 0 0-.176 2.28v9.959h5.05v9.188zM84.603 122.486a3.11 3.11 0 0 0 1.998-.701c.585-.467 1.088-1.122 1.509-1.964.421-.842.736-1.834.947-2.98.21-1.146.315-2.373.315-3.683 0-1.308-.117-2.536-.351-3.682-.234-1.145-.561-2.139-.982-2.981-.42-.841-.946-1.508-1.578-1.999-.631-.491-1.367-.736-2.209-.736-.701 0-1.344.234-1.929.701-.585.468-1.087 1.123-1.508 1.964-.42.842-.76 1.823-1.017 2.946a15.985 15.985 0 0 0-.385 3.577c0 2.899.491 5.214 1.472 6.943.982 1.731 2.221 2.595 3.718 2.595zm0 8.978c-2.525 0-4.969-.386-7.329-1.157-2.362-.772-4.454-1.93-6.278-3.472-1.824-1.543-3.273-3.483-4.348-5.821-1.076-2.338-1.613-5.051-1.613-8.136 0-2.946.549-5.552 1.648-7.821 1.098-2.267 2.548-4.173 4.348-5.716 1.8-1.543 3.858-2.711 6.172-3.507a21.59 21.59 0 0 1 7.049-1.192c2.759 0 5.33.433 7.715 1.297 2.385.867 4.454 2.105 6.207 3.718 1.754 1.613 3.121 3.577 4.103 5.891.982 2.315 1.473 4.945 1.473 7.891 0 2.899-.503 5.459-1.508 7.68-1.006 2.221-2.374 4.103-4.103 5.646-1.73 1.542-3.752 2.712-6.067 3.506-2.314.795-4.804 1.193-7.469 1.193zM62.511 121.785a37.062 37.062 0 0 1-4.069 3.752 29.282 29.282 0 0 1-4.909 3.156 28.115 28.115 0 0 1-5.751 2.175c-2.058.536-4.232.806-6.523.806-3.741 0-7.131-.573-10.17-1.719-3.04-1.144-5.635-2.805-7.785-4.979-2.151-2.174-3.823-4.815-5.015-7.925-1.192-3.11-1.788-6.628-1.788-10.556 0-4.02.677-7.633 2.034-10.836 1.355-3.202 3.086-5.915 5.19-8.136 2.104-2.22 4.406-3.915 6.908-5.085 2.501-1.168 4.898-1.753 7.189-1.753 1.73 0 3.238.21 4.524.631 1.286.421 2.373.9 3.262 1.437.887.539 1.577 1.077 2.069 1.614.49.538.806.901.946 1.087l1.614-3.928h11.011v19.919H48.694a13.23 13.23 0 0 0-.561-3.296c-.328-1.075-.784-2.022-1.368-2.841a6.51 6.51 0 0 0-2.245-1.963c-.912-.492-1.998-.737-3.261-.737a5.836 5.836 0 0 0-3.437 1.087c-1.029.726-1.906 1.719-2.63 2.981-.725 1.262-1.286 2.735-1.683 4.418-.398 1.684-.596 3.484-.596 5.401 0 1.73.221 3.391.666 4.98.444 1.59 1.098 2.992 1.964 4.208a9.984 9.984 0 0 0 3.191 2.911c1.263.725 2.735 1.087 4.419 1.087a9.135 9.135 0 0 0 4.138-.982c1.308-.655 2.455-1.39 3.436-2.209.983-.818 1.789-1.589 2.42-2.315.632-.724 1.017-1.18 1.158-1.368l8.206 8.978z"/>
    </g>
    <g style="isolation:isolate">
        <path d="M141.484 44.23c-1.076 0-1.953.21-2.63.631-.678.421-1.216.924-1.613 1.508a5.764 5.764 0 0 0-.842 1.858 12.576 12.576 0 0 0-.315 1.614h10.59c0-.655-.07-1.321-.21-1.999a5.265 5.265 0 0 0-.736-1.823c-.351-.538-.866-.971-1.544-1.298-.678-.327-1.577-.491-2.7-.491zm17.324 21.742c-2.619 2.245-5.378 3.823-8.276 4.735-2.9.911-6.172 1.367-9.819 1.367-2.199 0-4.396-.363-6.593-1.087a17.147 17.147 0 0 1-5.927-3.367c-1.753-1.519-3.191-3.482-4.313-5.891-1.122-2.408-1.683-5.295-1.683-8.662 0-2.851.491-5.411 1.472-7.68.982-2.268 2.315-4.196 3.999-5.786 1.683-1.59 3.67-2.793 5.961-3.612 2.29-.818 4.769-1.227 7.435-1.227 2.898 0 5.458.42 7.679 1.262 2.22.841 4.079 2.011 5.576 3.506a14.473 14.473 0 0 1 3.367 5.296c.747 2.034 1.122 4.244 1.122 6.628 0 .935-.07 1.859-.21 2.77a14.222 14.222 0 0 1-.631 2.56h-22.094c.094.468.246 1.03.456 1.684.21.655.572 1.286 1.088 1.893.513.609 1.214 1.123 2.103 1.543.888.421 2.08.631 3.577.631.607 0 1.274-.023 2-.07a11.558 11.558 0 0 0 2.349-.42 16.612 16.612 0 0 0 2.665-1.017c.935-.444 1.87-1.063 2.805-1.859l5.892 6.803zM102.769 44.23c-1.076 0-1.953.21-2.63.631-.678.421-1.216.924-1.613 1.508a5.785 5.785 0 0 0-.842 1.858 12.576 12.576 0 0 0-.315 1.614h10.59c0-.655-.07-1.321-.21-1.999a5.265 5.265 0 0 0-.736-1.823c-.351-.538-.866-.971-1.543-1.298-.679-.327-1.578-.491-2.701-.491zm17.324 21.742c-2.619 2.245-5.378 3.823-8.276 4.735-2.9.911-6.172 1.367-9.819 1.367-2.199 0-4.396-.363-6.593-1.087a17.151 17.151 0 0 1-5.926-3.367c-1.754-1.519-3.192-3.482-4.314-5.891-1.122-2.408-1.683-5.295-1.683-8.662 0-2.851.491-5.411 1.472-7.68.982-2.268 2.315-4.196 3.999-5.786 1.683-1.59 3.67-2.793 5.961-3.612 2.29-.818 4.769-1.227 7.435-1.227 2.898 0 5.458.42 7.68 1.262 2.22.841 4.078 2.011 5.575 3.506a14.473 14.473 0 0 1 3.367 5.296c.747 2.034 1.122 4.244 1.122 6.628 0 .935-.07 1.859-.21 2.77a14.222 14.222 0 0 1-.631 2.56H97.159c.093.468.245 1.03.456 1.684.209.655.571 1.286 1.086 1.893.515.609 1.216 1.123 2.104 1.543.888.421 2.081.631 3.577.631.607 0 1.274-.023 1.999-.07a11.555 11.555 0 0 0 2.35-.42 16.576 16.576 0 0 0 2.665-1.017c.935-.444 1.87-1.063 2.805-1.859l5.892 6.803zM38.243 54.961c.046-.467.186-1.333.421-2.595.234-1.263.514-2.712.842-4.349.326-1.636.677-3.366 1.052-5.19.373-1.824.747-3.577 1.122-5.26l3.507-15.781h14.588l4.419 19.358c.281 1.122.526 2.315.737 3.577.209 1.262.396 2.502.56 3.717.164 1.216.316 2.385.456 3.507.141 1.122.257 2.128.351 3.016h.351c.046-.795.151-1.8.315-3.016.163-1.216.351-2.466.561-3.753.211-1.285.421-2.524.631-3.717a43.57 43.57 0 0 1 .597-2.91l2.384-10.661H67.28v-9.118h20.059v9.118h-3.858l-10.45 39.908H56.409L52.2 54.119c-.14-.607-.304-1.297-.49-2.069a37.149 37.149 0 0 1-.492-2.349c-.139-.795-.28-1.567-.42-2.315a97.46 97.46 0 0 1-.351-1.964h-.28c-.095.515-.2 1.158-.316 1.929a52.65 52.65 0 0 1-.421 2.385c-.164.818-.327 1.602-.491 2.349-.164.749-.316 1.38-.456 1.894l-4.278 16.833H27.933l-9.258-39.908h-3.928v-9.118h23.145v9.118h-4.067l1.823 10.24c.186.841.397 1.941.631 3.296.234 1.357.456 2.724.667 4.104.21 1.379.396 2.664.561 3.857a65.87 65.87 0 0 0 .385 2.56h.351z"/>
    </g>
    <path d="m319.694 154.636 1.969 4.549c.526 1.21-.792 2.682-2.371 2.646l-8.794-.195-8.793-.195c-1.581-.036-2.236-1.551-1.182-2.725l5.872-6.548 5.874-6.549c1.054-1.177 3.028-1.134 3.554.08l2.766 6.389c19.099-11.845 30.765-27.671 30.765-45.052 0-36.72-52.067-66.491-116.293-66.491-17.907 0-34.871 2.316-50.021 6.448 19.371-8.248 48.777-14.742 74.789-14.742 64.227 0 113.268 30.937 113.268 67.66 0 22.432-21.122 42.587-51.403 54.725z"
          fill="#59B210" style="isolation:isolate"/>
    <path d="M0 0h390v225.02H0V0z" fill="none" style="isolation:isolate"/>
</svg>